HIERARCHY
ROOT hip
{
	OFFSET 0.000000 0.000000 0.000000
	CHANNELS 6 Xposition Yposition Zposition Xrotation Zrotation Yrotation 
	JOINT abdomen
	{
		OFFSET 0.000000 3.422050 0.000000
		CHANNELS 3 Xrotation Zrotation Yrotation 
		JOINT chest
		{
			OFFSET 0.000000 8.486693 -0.684411
			CHANNELS 3 Xrotation Zrotation Yrotation 
			JOINT neck
			{
				OFFSET 0.000000 10.266162 -0.273764
				CHANNELS 3 Xrotation Zrotation Yrotation 
				JOINT head
				{
					OFFSET 0.000000 3.148285 0.000000
					CHANNELS 3 Xrotation Zrotation Yrotation 
					End Site
					{
						OFFSET 0.000000 3.148289 0.000000
					}
				}
			}
			JOINT lCollar
			{
				OFFSET 3.422053 6.707223 -0.821293
				CHANNELS 3 Yrotation Zrotation Xrotation 
				JOINT lShldr
				{
					OFFSET 3.285171 0.000000 0.000000
					CHANNELS 3 Zrotation Yrotation Xrotation 
					JOINT lForeArm
					{
						OFFSET 10.129278 0.000000 0.000000
						CHANNELS 3 Yrotation Zrotation Xrotation 
						JOINT lHand
						{
							OFFSET 8.486692 0.000000 0.000000
							CHANNELS 3 Zrotation Yrotation Xrotation 
							End Site
							{
								OFFSET 4.106464 0.000000 0.000000
							}
						}
					}
				}
			}
			JOINT rCollar
			{
				OFFSET -3.558935 6.707223 -0.821293
				CHANNELS 3 Yrotation Zrotation Xrotation 
				JOINT rShldr
				{
					OFFSET -3.148289 0.000000 0.000000
					CHANNELS 3 Zrotation Yrotation Xrotation 
					JOINT rForeArm
					{
						OFFSET -10.266159 0.000000 0.000000
						CHANNELS 3 Yrotation Zrotation Xrotation 
						JOINT rHand
						{
							OFFSET -8.349810 0.000000 0.000000
							CHANNELS 3 Zrotation Yrotation Xrotation 
							End Site
							{
								OFFSET -4.106464 0.000000 0.000000
							}
						}
					}
				}
			}
		}
	}
	JOINT lThigh
	{
		OFFSET 5.338403 -1.642589 1.368821
		CHANNELS 3 Xrotation Zrotation Yrotation 
		JOINT lShin
		{
			OFFSET -2.053232 -20.121670 0.000000
			CHANNELS 3 Xrotation Zrotation Yrotation 
			JOINT lFoot
			{
				OFFSET 0.000000 -19.300380 -1.231939
				CHANNELS 3 Xrotation Yrotation Zrotation 
				End Site
				{
					OFFSET 0.000000 -2.463878 4.653993
				}
			}
		}
	}
	JOINT rThigh
	{
		OFFSET -5.338403 -1.642589 1.368821
		CHANNELS 3 Xrotation Zrotation Yrotation 
		JOINT rShin
		{
			OFFSET 2.053232 -20.121670 0.000000
			CHANNELS 3 Xrotation Zrotation Yrotation 
			JOINT rFoot
			{
				OFFSET 0.000000 -19.300380 -1.231939
				CHANNELS 3 Xrotation Yrotation Zrotation 
				End Site
				{
					OFFSET 0.000000 -2.463878 4.653993
				}
			}
		}
	}
}
MOTION
Frames: 18
Frame Time: 0.049897
0.000000 43.528500 0.000000 0.000000 0.000000 0.000000 0.000000 0.000000 0.000000 0.000000 0.000000 0.000000 0.000000 0.000000 0.000000 0.000000 0.000000 0.000000 0.000000 0.000000 0.000000 0.000000 0.000000 0.000000 0.000000 0.000000 0.000000 0.000000 0.000000 0.000000 0.000000 0.000000 0.000000 0.000000 0.000000 0.000000 0.000000 0.000000 0.000000 0.000000 0.000000 0.000000 0.000000 0.000000 0.000000 0.000000 0.000000 0.000000 0.000000 0.000000 0.000000 0.000000 0.000000 0.000000 0.000000 0.000000 0.000000 0.000000 0.000000 0.000000 
0.381469 44.462666 11.327095 -2.999404 0.000000 180.000000 1.647184 -1.210729 -0.813131 7.809685 -1.270680 -0.565226 0.270998 0.180135 -0.015311 0.089177 0.075188 0.000060 -20.847891 -9.154097 -22.809937 5.061223 -50.295052 -28.223028 -75.008247 -28.119421 -22.367693 -26.307739 14.541854 -19.030493 -0.657794 1.721653 0.134042 71.724190 28.680042 8.126413 25.347734 21.848791 -3.703254 -1.634754 4.192519 2.146918 -4.620975 0.390287 0.521503 10.428865 -2.183749 -0.180000 2.767922 0.772140 7.071494 -163.283493 -2.219077 -0.426828 10.056501 2.376472 0.144166 5.824664 -0.479601 -5.529660 
0.381469 44.462666 11.251668 -1.673816 0.000000 180.000000 2.146754 -1.210774 -0.813156 8.861046 -1.270594 -0.565318 0.385125 0.331935 -0.045214 0.143600 0.135062 -0.183631 -21.298458 -8.759324 -23.126678 5.054440 -50.275940 -28.216808 -74.168839 -28.056534 -21.971851 -26.473658 14.103340 -18.930189 -0.513974 1.729668 -0.377046 71.724190 28.680042 8.126415 25.098392 21.670509 -3.617882 -1.469515 4.033450 1.991623 -2.876977 0.460669 0.454442 9.847487 -2.345923 -0.143794 3.196944 0.777588 7.113433 -162.667740 -2.112411 -0.480861 11.331757 2.105271 0.215734 5.262315 -0.475645 -5.388172 
0.381469 44.462666 11.176241 -0.345951 0.000000 180.000000 2.646476 -1.210817 -0.813181 9.913836 -1.270506 -0.565410 0.499223 0.483860 -0.074829 0.197857 0.195138 -0.367353 -21.746569 -8.361909 -23.440098 5.047664 -50.256844 -28.210604 -73.329880 -27.988489 -21.577068 -26.640106 13.664980 -18.828739 -0.370040 1.736402 -0.888328 71.724197 28.680042 8.126415 24.849600 21.491850 -3.533438 -1.303859 3.874812 1.835882 -1.126420 0.533338 0.389312 9.265683 -2.507796 -0.105921 3.626061 0.783352 7.155340 -162.051834 -2.005120 -0.533767 12.609130 1.831974 0.281365 4.699728 -0.473076 -5.246593 
0.381469 44.462666 11.100814 0.984433 0.000000 -180.000000 3.146333 -1.210861 -0.813207 10.967877 -1.270416 -0.565500 0.613295 0.635908 -0.104153 0.251946 0.255415 -0.551105 -22.192230 -7.961912 -23.750195 5.040893 -50.237720 -28.204393 -72.491554 -27.915327 -21.183493 -26.807085 13.226797 -18.726139 -0.226008 1.741854 -1.399778 71.724190 28.680042 8.126415 24.601381 21.312845 -3.449925 -1.137788 3.716612 1.679698 0.629915 0.608215 0.326225 8.683470 -2.669337 -0.066385 4.055260 0.789430 7.197209 -161.435806 -1.897221 -0.585533 13.888354 1.556778 0.340979 4.136934 -0.471898 -5.104946 
0.381469 44.462666 11.025387 2.316982 0.000000 -180.000000 3.646301 -1.210904 -0.813233 12.022991 -1.270325 -0.565588 0.727340 0.788079 -0.133189 0.305866 0.315894 -0.734885 -22.635443 -7.559391 -24.056959 5.034128 -50.218609 -28.198195 -71.653931 -27.837029 -20.791231 -26.974609 12.788814 -18.622389 -0.081897 1.746021 -1.911372 71.724190 28.680042 8.126414 24.353720 21.133486 -3.367338 -0.971302 3.558852 1.523071 2.391226 0.685212 0.265291 8.100870 -2.830522 -0.025187 4.484526 0.795823 7.239040 -160.819702 -1.788734 -0.636150 15.169148 1.279884 0.394505 3.573964 -0.472111 -4.963250 
0.381469 44.462666 10.949960 3.651340 0.000000 -180.000000 4.146367 -1.210947 -0.813259 13.079004 -1.270232 -0.565675 0.841361 0.940370 -0.161934 0.359617 0.376573 -0.918692 -23.076214 -7.154411 -24.360401 5.027368 -50.199482 -28.191996 -70.817223 -27.753645 -20.400436 -27.142696 12.351048 -18.517485 0.062277 1.748902 -2.423084 71.724190 28.680042 8.126413 24.106623 20.953789 -3.285677 -0.804403 3.401538 1.366002 4.156702 0.764237 0.206615 7.517909 -2.991325 0.017668 4.913852 0.802530 7.280830 -160.203537 -1.679676 -0.685609 16.451244 1.001497 0.441880 3.010851 -0.473717 -4.821526 
0.381469 44.462666 10.874533 4.987151 0.000000 -180.000000 4.646508 -1.210990 -0.813286 14.135735 -1.270137 -0.565760 0.955357 1.092781 -0.190389 0.413198 0.437451 -1.102527 -23.514551 -6.747030 -24.660505 5.020614 -50.180374 -28.185806 -69.981575 -27.665192 -20.011236 -27.311352 11.913526 -18.411430 0.206496 1.750497 -2.934889 71.724190 28.680042 8.126413 23.860077 20.773752 -3.204939 -0.637090 3.244675 1.208492 5.925520 0.845189 0.150295 6.934610 -3.151720 0.062175 5.343222 0.809551 7.322572 -159.587357 -1.570067 -0.733901 17.734369 0.721825 0.483051 2.447627 -0.476717 -4.679795 
0.381469 44.462666 10.799106 6.324049 0.000000 -180.000000 5.146707 -1.211033 -0.813313 15.193007 -1.270041 -0.565843 1.069330 1.245310 -0.218554 0.466607 0.498528 -1.286387 -23.950453 -6.337308 -24.957272 5.013865 -50.161255 -28.179619 -69.147079 -27.571712 -19.623760 -27.480577 11.476258 -18.304214 0.350741 1.750804 -3.446761 71.724190 28.680042 8.126412 23.614098 20.593393 -3.125123 -0.469366 3.088266 1.050542 7.696845 0.927960 0.096423 6.351000 -3.311681 0.108331 5.772623 0.816885 7.364262 -158.971191 -1.459925 -0.781016 19.018234 0.441080 0.517972 1.884325 -0.481110 -4.538079 
0.381469 44.462666 10.723679 7.661675 0.000000 -180.000000 5.646943 -1.211075 -0.813341 16.250639 -1.269942 -0.565925 1.183280 1.397955 -0.246428 0.519843 0.559803 -1.470272 -24.383942 -5.925313 -25.250711 5.007124 -50.142132 -28.173437 -68.313911 -27.473221 -19.238129 -27.650391 11.039268 -18.195833 0.494996 1.749822 -3.958677 71.724197 28.680042 8.126414 23.368658 20.412703 -3.046224 -0.301230 2.932317 0.892153 9.469837 1.012439 0.045087 5.767097 -3.471181 0.156129 6.202043 0.824531 7.405899 -158.355072 -1.349269 -0.826948 20.302572 0.159475 0.546606 1.320977 -0.486897 -4.396398 
0.381469 44.462666 10.648251 8.999665 0.000000 -180.000000 6.147198 -1.211117 -0.813368 17.308451 -1.269843 -0.566005 1.297208 1.550716 -0.274011 0.572906 0.621274 -1.654181 -24.815016 -5.511100 -25.540819 5.000388 -50.123013 -28.167265 -67.482208 -27.369764 -18.854473 -27.820812 10.602586 -18.086294 0.639242 1.747552 -4.470609 71.724190 28.680046 8.126413 23.123766 20.231695 -2.968243 -0.132684 2.776830 0.733326 11.243659 1.098508 -0.003635 5.182929 -3.630197 0.205565 6.631471 0.832490 7.447480 -157.739029 -1.238120 -0.871687 21.587109 -0.122776 0.568926 0.757615 -0.494077 -4.254773 
0.381469 44.462666 10.572824 10.337652 0.000000 -180.000000 6.647454 -1.211159 -0.813397 18.366262 -1.269742 -0.566082 1.411116 1.703591 -0.301302 0.625794 0.682942 -1.838114 -25.243690 -5.094732 -25.827589 4.993658 -50.103893 -28.161100 -66.652077 -27.261375 -18.472910 -27.991837 10.166222 -17.975584 0.783463 1.743995 -4.982535 71.724190 28.680040 8.126413 22.879433 20.050386 -2.891177 0.036271 2.621812 0.574062 13.017460 1.186043 -0.049670 4.598517 -3.788700 0.256632 7.060897 0.840760 7.489001 -157.123093 -1.126496 -0.915226 22.871567 -0.405456 0.584914 0.194272 -0.502649 -4.113226 
0.381469 44.462666 10.497396 11.675275 0.000000 -180.000000 7.147693 -1.211201 -0.813426 19.423893 -1.269640 -0.566158 1.525004 1.856577 -0.328302 0.678506 0.744805 -2.022068 -25.669973 -4.676272 -26.111031 4.986932 -50.084778 -28.154942 -65.823685 -27.148109 -18.093567 -28.163485 9.730204 -17.863708 0.927638 1.739149 -5.494425 71.724190 28.680042 8.126413 22.635632 19.868765 -2.815022 0.205635 2.467266 0.414362 14.790392 1.274917 -0.092954 4.013890 -3.946667 0.309323 7.490302 0.849341 7.530456 -156.507309 -1.014418 -0.957559 24.155664 -0.688349 0.594559 -0.369019 -0.512612 -3.971778 
0.381469 44.462666 10.421969 13.012164 0.000000 -180.000000 7.647890 -1.211242 -0.813454 20.481167 -1.269536 -0.566232 1.638872 2.009675 -0.355010 0.731042 0.806863 -2.206044 -26.093882 -4.255784 -26.391150 4.980213 -50.065643 -28.148777 -64.997139 -27.029995 -17.716551 -28.335768 9.294552 -17.750662 1.071753 1.733017 -6.006256 71.724190 28.680042 8.126413 22.392372 19.686844 -2.739779 0.375406 2.313197 0.254228 16.561621 1.365001 -0.133431 3.429065 -4.104070 0.363632 7.919677 0.858231 7.571842 -155.891708 -0.901904 -0.998678 25.439129 -0.971238 0.597862 -0.932228 -0.523964 -3.830447 
0.381469 44.462666 10.346542 14.347960 0.000000 -180.000000 8.148031 -1.211284 -0.813484 21.537897 -1.269431 -0.566305 1.752723 2.162883 -0.381426 0.783401 0.869114 -2.390041 -26.515421 -3.833326 -26.667940 4.973502 -50.046539 -28.142635 -64.172592 -26.907095 -17.341991 -28.508688 8.859284 -17.636436 1.215787 1.725599 -6.518003 71.724190 28.680042 8.126413 22.149656 19.504635 -2.665442 0.545582 2.159608 0.093660 18.330297 1.456160 -0.171052 2.844075 -4.260888 0.419550 8.349012 0.867431 7.613160 -155.276306 -0.788976 -1.038578 26.721685 -1.253906 0.594832 -1.495320 -0.536702 -3.689258 
0.381469 44.462666 10.271115 15.682299 0.000000 -180.000000 8.648095 -1.211324 -0.813513 22.593910 -1.269325 -0.566375 1.866557 2.316199 -0.407549 0.835581 0.931558 -2.574057 -26.934612 -3.408961 -26.941418 4.966793 -50.027401 -28.136484 -63.350136 -26.779451 -16.969986 -28.682266 8.424421 -17.521036 1.359725 1.716898 -7.029643 71.724190 28.680042 8.126413 21.907473 19.322142 -2.592012 0.716165 2.006505 -0.067340 20.095608 1.548259 -0.205779 2.258939 -4.417092 0.477070 8.778291 0.876939 7.654401 -154.661133 -0.675653 -1.077252 28.003073 -1.536140 0.585486 -2.058264 -0.550824 -3.548228 
0.381469 44.462666 10.195688 17.014832 0.000000 -180.000000 9.148067 -1.211365 -0.813544 23.649027 -1.269217 -0.566443 1.980374 2.469621 -0.433380 0.887581 0.994194 -2.758092 -27.351460 -2.982751 -27.211569 4.960096 -50.008293 -28.130360 -62.529926 -26.647118 -16.600651 -28.856497 7.989986 -17.404451 1.503548 1.706914 -7.541146 71.724190 28.680046 8.126414 21.665819 19.139366 -2.519485 0.887151 1.853892 -0.228771 21.856716 1.641159 -0.237580 1.673684 -4.572659 0.536183 9.207503 0.886754 7.695565 -154.046265 -0.561956 -1.114696 29.282999 -1.817723 0.569851 -2.621029 -0.566327 -3.407381 
0.381469 44.462666 10.120261 18.345184 0.000000 -180.000000 9.647923 -1.211406 -0.813574 24.703062 -1.269109 -0.566509 2.094176 2.623149 -0.458917 0.939401 1.057020 -2.942144 -27.765984 -2.554759 -27.478418 4.953402 -49.989170 -28.124226 -61.712036 -26.510149 -16.234085 -29.031408 7.555999 -17.286680 1.647239 1.695650 -8.052492 71.724190 28.680040 8.126413 21.424698 18.956322 -2.447859 1.058540 1.701772 -0.390632 23.612833 1.734724 -0.266432 1.088334 -4.727565 0.596880 9.636637 0.896875 7.736647 -153.431686 -0.447904 -1.150904 30.561207 -2.098446 0.547964 -3.183580 -0.583206 -3.266735 
